<svg id="svg" xmlns="http://www.w3.org/2000/svg" xmlns:xlink="http://www.w3.org/1999/xlink" viewBox="0, 0, 512,512"><g id="svgg"><path id="path0" d="M34.610 90.337 C 25.437 92.968,15.521 102.147,12.975 110.364 C 10.864 117.174,10.864 282.826,12.975 289.636 C 15.660 298.302,26.103 307.587,35.811 309.939 C 44.484 312.040,359.968 311.492,366.213 309.365 C 375.009 306.370,386.175 294.506,388.351 285.845 C 390.237 278.337,390.237 121.663,388.351 114.155 C 386.175 105.494,375.009 93.630,366.213 90.635 C 359.660 88.403,42.347 88.118,34.610 90.337 M359.944 111.571 C 361.190 112.215,363.158 113.925,364.317 115.371 C 365.476 116.817,366.779 118.435,367.212 118.966 C 368.293 120.291,368.293 279.709,367.212 281.034 C 366.779 281.565,365.476 283.183,364.317 284.629 C 360.002 290.012,373.640 289.600,199.600 289.600 C 25.977 289.600,39.290 289.991,34.895 284.767 L 32.800 282.277 32.800 200.047 L 32.800 117.816 34.529 115.618 C 39.029 109.897,22.923 110.406,199.440 110.403 C 336.811 110.400,357.978 110.554,359.944 111.571 M100.381 124.200 C 100.179 124.750,89.742 157.780,77.188 197.600 C 64.635 237.420,53.854 271.530,53.230 273.400 L 52.097 276.800 71.049 276.798 L 90.000 276.795 94.305 261.598 L 98.609 246.400 117.143 246.400 L 135.677 246.400 140.089 261.400 L 144.501 276.400 163.542 276.615 C 179.953 276.800,182.521 276.668,182.135 275.663 C 181.889 275.022,172.278 245.405,160.778 209.848 C 149.277 174.292,138.258 140.250,136.290 134.200 L 132.712 123.200 116.731 123.200 C 104.676 123.200,100.659 123.446,100.381 124.200 M192.000 200.000 L 192.000 276.800 209.600 276.800 L 227.200 276.800 227.200 254.400 L 227.200 232.000 240.200 231.986 C 248.562 231.977,255.190 231.551,258.777 230.791 C 311.238 219.678,311.200 135.515,258.730 124.399 C 254.433 123.489,246.376 123.225,222.600 123.214 L 192.000 123.200 192.000 200.000 M312.800 200.000 L 312.800 276.800 330.400 276.800 L 348.000 276.800 348.000 200.000 L 348.000 123.200 330.400 123.200 L 312.800 123.200 312.800 200.000 M252.615 160.438 C 266.584 166.275,266.537 191.464,252.548 196.749 C 251.309 197.217,245.099 197.600,238.748 197.600 L 227.200 197.600 227.200 178.400 L 227.200 159.200 238.426 159.200 C 246.748 159.200,250.418 159.520,252.615 160.438 M122.063 188.137 C 124.441 199.282,126.576 209.210,126.808 210.200 C 127.230 211.996,127.210 212.000,116.761 212.000 C 107.165 212.000,106.327 211.883,106.711 210.600 C 106.941 209.830,109.136 200.200,111.588 189.200 C 116.428 167.484,116.619 166.753,117.289 167.423 C 117.538 167.671,119.686 176.993,122.063 188.137 " stroke="none" fill="currentColor" ></path></g></svg>