<?xml version="1.0" standalone="no"?>
<!DOCTYPE svg PUBLIC "-//W3C//DTD SVG 20010904//EN"
 "http://www.w3.org/TR/2001/REC-SVG-20010904/DTD/svg10.dtd">
<svg version="1.0" xmlns="http://www.w3.org/2000/svg"
 width="1001.000000pt" height="1018.000000pt" viewBox="0 0 1001.000000 1018.000000"
 preserveAspectRatio="xMidYMid meet">

<g transform="translate(0.000000,1018.000000) scale(0.100000,-0.100000)"
fill="#de6161" stroke="none">
<path d="M4565 10154 c-55 -8 -120 -18 -145 -23 -162 -34 -213 -47 -280 -68
-41 -12 -82 -23 -92 -23 -9 0 -19 -4 -23 -9 -3 -5 -19 -13 -36 -16 -64 -14
-315 -127 -454 -204 -511 -284 -968 -788 -1195 -1316 -11 -27 -25 -59 -30 -70
-25 -55 -68 -175 -90 -250 -5 -16 -16 -55 -25 -85 -49 -172 -76 -334 -96 -597
-16 -205 0 -445 45 -683 29 -156 48 -229 98 -375 69 -201 152 -382 250 -543
21 -34 38 -65 38 -69 0 -3 11 -21 25 -39 14 -18 25 -35 25 -38 0 -10 165 -239
251 -346 111 -140 346 -374 494 -491 277 -220 577 -388 940 -526 22 -9 49 -19
60 -23 58 -24 281 -94 395 -125 36 -9 76 -21 90 -26 14 -4 70 -20 125 -35 95
-25 181 -48 290 -78 74 -21 278 -88 295 -97 8 -4 44 -21 80 -37 167 -74 276
-174 341 -310 23 -48 45 -96 50 -107 18 -42 39 -191 39 -279 0 -95 -23 -383
-41 -496 -17 -118 -39 -422 -39 -555 0 -118 25 -371 49 -500 16 -87 62 -252
92 -330 132 -345 289 -595 515 -817 190 -186 336 -283 639 -423 67 -31 291
-99 370 -112 17 -2 65 -11 109 -19 123 -22 453 -19 591 6 124 22 189 36 225
49 14 5 52 17 85 26 33 10 64 21 70 26 5 5 16 9 24 9 26 0 248 109 349 172
194 121 416 327 548 508 141 194 250 419 314 650 7 25 18 65 25 90 51 181 61
570 21 790 -25 134 -62 270 -98 360 -6 14 -16 39 -22 55 -25 63 -101 212 -133
263 -18 29 -33 54 -33 57 0 5 -100 153 -123 180 -92 114 -131 158 -205 234
-48 48 -114 109 -147 137 -33 27 -65 54 -71 59 -6 6 -37 28 -70 50 -32 22 -61
42 -64 45 -33 36 -425 249 -570 310 -30 12 -84 36 -120 52 -36 16 -81 37 -100
45 -285 127 -432 216 -531 320 -56 58 -139 181 -139 206 0 7 -4 17 -9 22 -16
17 -41 161 -41 237 0 123 30 296 91 528 5 19 18 71 30 115 11 44 27 105 35
135 8 30 19 71 23 90 5 19 16 64 26 100 19 73 27 110 45 190 6 30 15 71 20 90
26 109 38 183 70 445 27 221 27 526 0 730 -32 241 -50 337 -71 393 -5 13 -9
31 -9 41 0 46 -112 375 -183 536 -50 114 -220 441 -242 465 -8 9 -15 20 -15
24 0 4 -4 12 -10 19 -5 7 -46 62 -89 124 -44 61 -92 126 -108 144 -15 18 -46
53 -67 78 -71 82 -249 251 -346 330 -143 115 -325 231 -494 315 -156 77 -179
87 -281 125 -33 13 -71 27 -85 33 -14 6 -38 14 -55 19 -16 4 -55 15 -85 24
-109 33 -241 60 -415 85 -161 24 -562 26 -720 4z"/>
<path d="M1625 3829 c-22 -4 -83 -15 -135 -24 -99 -17 -294 -78 -390 -122
-218 -99 -417 -240 -580 -410 -74 -78 -85 -90 -147 -169 -79 -101 -206 -331
-248 -449 -9 -27 -21 -59 -26 -70 -14 -34 -28 -88 -66 -250 -21 -89 -24 -568
-5 -655 40 -176 68 -271 117 -388 24 -58 34 -81 56 -122 5 -8 23 -43 41 -77
18 -35 36 -63 40 -63 5 0 8 -5 8 -11 0 -18 163 -229 232 -299 144 -147 337
-289 503 -369 50 -24 99 -48 109 -54 25 -12 118 -45 181 -64 180 -53 325 -73
530 -73 307 0 527 50 800 182 139 67 250 137 360 228 64 53 246 237 277 280
18 25 35 47 39 50 12 9 115 174 150 240 29 55 57 117 109 245 17 42 53 171 77
280 14 66 17 126 17 335 -1 226 -3 266 -23 350 -12 52 -26 111 -30 130 -25
110 -105 305 -171 415 -16 28 -37 64 -46 80 -66 118 -270 348 -399 450 -27 22
-51 43 -53 48 -2 4 -8 7 -12 7 -5 0 -42 24 -84 54 -159 114 -450 234 -656 270
-52 9 -117 21 -143 26 -58 12 -375 11 -432 -1z"/>
</g>
</svg>
