<svg id="svg" version="1.1" xmlns="http://www.w3.org/2000/svg" xmlns:xlink="http://www.w3.org/1999/xlink"  viewBox="0 0 400 400"><g id="svgg">
<path fill="currentColor"  d="M169.835 33.567 C 161.422 36.199,159.160 40.247,155.624 59.000 L 152.719 74.404 141.183 80.105 C 134.837 83.241,126.460 88.134,122.566 90.979 L 115.487 96.150 101.327 91.299 C 76.299 82.725,74.290 83.486,60.800 106.649 C 34.632 151.583,34.759 149.925,56.066 168.391 L 68.056 178.783 67.435 183.418 C 66.633 189.405,66.633 210.595,67.435 216.582 L 68.056 221.217 56.066 231.609 C 35.257 249.643,35.257 249.270,56.151 285.363 C 74.983 317.895,74.787 317.793,101.327 308.701 L 115.487 303.850 122.566 309.011 C 126.460 311.849,134.624 316.649,140.708 319.678 C 153.398 325.995,152.714 325.373,153.499 331.308 C 156.894 356.989,163.855 367.257,177.871 367.257 L 182.828 367.257 197.387 318.836 C 213.381 265.645,214.347 263.296,222.741 257.150 C 231.705 250.587,227.588 250.944,299.964 250.447 L 364.973 250.000 348.465 235.556 L 331.957 221.112 332.571 216.529 C 333.368 210.591,333.364 189.385,332.566 183.425 L 331.946 178.797 344.135 168.208 C 364.543 150.479,364.545 150.303,344.627 115.965 C 325.002 82.133,325.049 82.158,298.794 91.331 L 284.757 96.236 277.555 91.022 C 273.595 88.155,265.159 83.224,258.810 80.066 L 247.266 74.324 244.369 58.960 C 239.402 32.620,240.436 33.243,201.327 33.018 C 185.265 32.926,171.094 33.173,169.835 33.567 M216.087 153.332 C 250.944 166.041,260.583 208.479,234.531 234.531 C 207.194 261.868,161.784 249.371,152.193 211.871 C 142.636 174.502,180.075 140.200,216.087 153.332 M227.526 324.101 C 221.493 346.620,216.382 365.542,216.169 366.150 C 215.875 366.990,218.033 367.257,225.123 367.257 L 234.464 367.257 235.768 362.611 C 236.485 360.055,237.508 356.272,238.039 354.204 L 239.006 350.442 249.911 350.442 L 260.816 350.442 263.005 358.628 L 265.194 366.814 274.632 367.065 C 279.823 367.203,284.054 367.203,284.032 367.065 C 284.011 366.927,278.909 348.097,272.693 325.221 L 261.392 283.628 249.944 283.393 L 238.496 283.157 227.526 324.101 M300.000 325.152 L 300.000 367.257 308.407 367.257 L 316.814 367.257 316.814 350.442 L 316.814 333.628 323.294 333.628 C 350.975 333.628,360.909 299.925,337.315 286.056 C 333.271 283.678,332.845 283.622,316.593 283.338 L 300.000 283.048 300.000 325.152 M366.372 325.221 L 366.372 367.257 375.221 367.257 L 384.071 367.257 384.071 325.221 L 384.071 283.186 375.221 283.186 L 366.372 283.186 366.372 325.221 M326.679 300.906 C 337.272 303.849,333.805 315.843,322.345 315.901 L 316.814 315.929 316.814 307.965 L 316.814 300.000 320.133 300.005 C 321.958 300.008,324.904 300.413,326.679 300.906 M253.466 321.723 L 256.315 332.743 249.933 332.743 L 243.551 332.743 245.719 324.115 C 249.247 310.069,249.777 308.349,250.208 309.555 C 250.433 310.186,251.899 315.662,253.466 321.723 " transform="scale(64)" fill="#000000"/>
</svg>
